# xmcd
# Track frame offsets:
# 183
# 12263
# 29023
# 47200
# 61085
# 73515
# 87818
# 105073
# 115568
# 133320
# 146303
# 163903
# 174413
# 188633
# 206908
#
# Disc length: 2900 seconds
# Revision: 0
# Processed by: cddbd v1.4PL0 Copyright (c) Steve Scherf et al.
# Submitted via: VisiTrax 2.9.5.180 - For more info visit www.synapsa.com
#
DISCID=c80b520f
DTITLE=Karl Denver - Just loving you
DYEAR=1993
DGENRE=
TTITLE0=From a jack to a king
TTITLE1=Garden party
TTITLE2=I can't stop loving ou
TTITLE3=Last train to San Fernando
TTITLE4=King of the road
TTITLE5=Just loving you
TTITLE6=Song for Maria
TTITLE7=Walk on by
TTITLE8=Won't give up
TTITLE9=Runaway
TTITLE10=Voices of the highlands
TTITLE11=A little bitty tear
TTITLE12=Travellin' light
TTITLE13=The answear to everything
TTITLE14=The story of my life
EXTD=
EXTT0=
EXTT1=
EXTT2=
EXTT3=
EXTT4=
EXTT5=
EXTT6=
EXTT7=
EXTT8=
EXTT9=
EXTT10=
EXTT11=
EXTT12=
EXTT13=
EXTT14=
PLAYORDER=
